<svg xmlns="http://www.w3.org/2000/svg" viewBox="0 0 16 16" style="display:block!important;fill:currentColor!important;width:16px!important;height:16px!important"><path d="M8.28439 0.619913C12.3385 0.762025 15.5217 4.18821 15.3801 8.25775C15.2385 12.3271 11.825 15.5221 7.77092 15.38C3.71669 15.2379 0.533499 11.8117 0.67508 7.74231C0.681887 7.54618 0.691595 7.35236 0.714312 7.16072C0.725872 7.06324 0.877483 6.32426 1.53911 6.41239C2.03511 6.4785 2.19208 6.91401 2.15542 7.24594C2.14837 7.30974 2.13399 7.4785 2.13399 7.4785C2.12489 7.58249 2.11845 7.68724 2.11474 7.79276C2.00087 11.0653 4.56082 13.8207 7.82114 13.935C11.0814 14.0493 13.8265 11.4798 13.9404 8.20729C14.0543 4.93459 11.4943 2.17923 8.23413 2.06493C7.92633 2.05415 7.62308 2.06746 7.32627 2.10294L7.14896 2.12687C7.14896 2.12687 6.29609 2.26862 6.10609 1.69051C5.92226 1.13111 6.35172 0.807509 6.64245 0.746823C7.17277 0.644899 7.72238 0.600183 8.28439 0.619913ZM0.377094 1.37956C0.445891 1.37956 0.510217 1.39852 0.565762 1.43111L8.32629 5.42412C8.34941 5.43552 8.37216 5.44736 8.3948 5.45937L8.42404 5.47441L8.42368 5.47482L8.50269 5.51975C9.15218 5.90418 9.57631 6.53595 9.57631 7.25063C9.57631 7.25597 9.57587 7.26119 9.57583 7.26652L9.57631 7.26596L9.5764 9.94954C9.57641 9.97238 9.57642 9.99453 9.57643 10.016L9.57676 10.4381C9.57677 10.4482 9.57678 10.4577 9.5768 10.4666L9.57696 10.567C9.57704 10.5702 9.5774 10.5733 9.5774 10.5765C9.5774 10.7875 9.40855 10.9584 9.20018 10.9584C9.13614 10.9584 9.07588 10.9421 9.02304 10.9136L7.2201 10.0035L7.22247 10.0007C6.49144 9.66056 5.99601 9.01497 5.98896 8.27267C5.98848 7.71587 5.90067 7.06934 5.0132 6.30206C4.46012 5.824 3.79937 5.24999 3.14497 4.68033L2.93866 4.50069C1.60076 3.33554 0.340225 2.23316 0.143314 2.06093L0.121764 2.04209C0.118421 2.03914 0.116165 2.0372 0.116165 2.0372L0.0873202 2.00556C0.0328777 1.93938 0 1.85438 0 1.7615C0 1.5505 0.168851 1.37956 0.377094 1.37956Z"></path></svg>